<svg width="16" height="16" viewBox="0 0 16 16" fill="none" xmlns="http://www.w3.org/2000/svg">
<g clip-path="url(#clip0_249_459)">
<path fill-rule="evenodd" clip-rule="evenodd" d="M3.47283 0.249435C6.48173 -0.083145 9.51821 -0.083145 12.5271 0.249435C14.1931 0.435845 15.5371 1.74557 15.7326 3.41452C16.0891 6.46114 16.0891 9.53886 15.7326 12.5855C15.5371 14.2544 14.1931 15.5642 12.5271 15.7506C9.51821 16.0831 6.48173 16.0831 3.47283 15.7506C1.80688 15.5642 0.462837 14.2544 0.267358 12.5855C-0.0891193 9.53918 -0.0891193 6.46179 0.267358 3.41549C0.366233 2.60467 0.736488 1.85095 1.31812 1.27648C1.89974 0.702006 2.65865 0.340449 3.47186 0.250406M7.99997 3.15238C8.19342 3.15238 8.37895 3.22909 8.51574 3.36565C8.65252 3.50221 8.72937 3.68742 8.72937 3.88054V7.27184H12.1264C12.3199 7.27184 12.5054 7.34855 12.6422 7.48511C12.779 7.62167 12.8558 7.80688 12.8558 8C12.8558 8.19312 12.779 8.37833 12.6422 8.51489C12.5054 8.65144 12.3199 8.72816 12.1264 8.72816H8.72937V12.1195C8.72937 12.3126 8.65252 12.4978 8.51574 12.6343C8.37895 12.7709 8.19342 12.8476 7.99997 12.8476C7.80652 12.8476 7.621 12.7709 7.48421 12.6343C7.34742 12.4978 7.27057 12.3126 7.27057 12.1195V8.72816H3.87351C3.68006 8.72816 3.49454 8.65144 3.35775 8.51489C3.22096 8.37833 3.14411 8.19312 3.14411 8C3.14411 7.80688 3.22096 7.62167 3.35775 7.48511C3.49454 7.34855 3.68006 7.27184 3.87351 7.27184H7.27057V3.88054C7.27057 3.68742 7.34742 3.50221 7.48421 3.36565C7.621 3.22909 7.80652 3.15238 7.99997 3.15238Z" fill="white"/>
</g>
<defs>
<clipPath id="clip0_249_459">
<rect width="16" height="16" rx="8" fill="white"/>
</clipPath>
</defs>
</svg>
