<svg width="75" height="75" viewBox="0 0 75 75" fill="none" xmlns="http://www.w3.org/2000/svg">
<path d="M62.8965 22.7294H65.7583V25.5912H62.8965V22.7294ZM57.1541 25.5912H62.8965V28.4719H57.1541V25.5912ZM57.1541 19.8676H62.8965V22.7294H57.1541V19.8676ZM51.4117 51.4227V54.2845H45.6881V57.1651H39.9457V60.0269H34.2032V57.1651H28.4608V54.2845H22.7372V51.4227H16.9948V48.5421H8.39062V51.4227H11.2524V54.2845H16.9948V57.1651H22.7372V60.0269H28.4608V62.8887H34.2032V65.7693H39.9457V62.8887H45.6881V60.0269H51.4117V57.1651H57.1541V54.2845H62.8965V51.4227H65.7583V48.5421H57.1541V51.4227H51.4117Z" fill="#494949"/>
<path d="M51.4117 42.8183V45.6801H45.6881V48.5419H39.9457V51.4225H34.2032V48.5419H28.4608V45.6801H22.7372V42.8183H16.9948V39.9377H8.39062V42.8183H11.2524V45.6801H16.9948V48.5419H22.7372V51.4225H28.4608V54.2843H34.2032V57.1649H39.9457V54.2843H45.6881V51.4225H51.4117V48.5419H57.1541V45.6801H62.8965V42.8183H65.7583V39.9377H57.1541V42.8183H51.4117Z" fill="#494949"/>
<path d="M51.4117 34.2142V37.076H45.6881V39.9378H39.9457V42.8184H34.2032V39.9378H28.4608V37.076H22.7372V34.2142H16.9948V31.3336H8.39062V34.2142H11.2524V37.076H16.9948V39.9378H22.7372V42.8184H28.4608V45.6802H34.2032V48.542H39.9457V45.6802H45.6881V42.8184H51.4117V39.9378H57.1541V37.076H62.8965V34.2142H65.7583V31.3336H57.1541V34.2142H51.4117ZM51.4117 28.4718H57.1541V31.3336H51.4117V28.4718ZM51.4117 16.987H57.1541V19.8676H51.4117V16.987Z" fill="#494949"/>
<path d="M45.6881 31.3335H51.4117V34.2141H45.6881V31.3335ZM45.6881 14.1251H51.4117V16.9869H45.6881V14.1251ZM39.9457 34.2141H45.6881V37.0759H39.9457V34.2141ZM39.9457 11.2633H45.6881V14.1251H39.9457V11.2633ZM34.2032 37.0759H39.9457V39.9377H34.2032V37.0759ZM34.2032 8.38264H39.9457V11.2633H34.2032V8.38264ZM28.4608 34.2141H34.2032V37.0759H28.4608V34.2141ZM28.4608 11.2633H34.2032V14.1251H28.4608V11.2633ZM22.7372 31.3335H28.4608V34.2141H22.7372V31.3335ZM22.7372 14.1251H28.4608V16.9869H22.7372V14.1251ZM16.9948 28.4717H22.7372V31.3335H16.9948V28.4717ZM16.9948 16.9869H22.7372V19.8675H16.9948V16.9869ZM11.2524 25.5911H16.9948V28.4717H11.2524V25.5911ZM11.2524 19.8675H16.9948V22.7293H11.2524V19.8675ZM8.39062 22.7293H11.2524V25.5911H8.39062V22.7293Z" fill="#494949"/>
</svg>
