<svg width="16" height="11" viewBox="0 0 16 11" fill="none" xmlns="http://www.w3.org/2000/svg">
<path fill-rule="evenodd" clip-rule="evenodd" d="M2.3984 2.18429C3.7832 1.05679 5.7584 0 8 0C10.2416 0 12.216 1.05679 13.6016 2.18429C14.2281 2.68834 14.7911 3.26417 15.2784 3.8995C15.4808 4.16979 15.6504 4.43536 15.7728 4.68286C15.8848 4.90757 16 5.19986 16 5.5C16 5.80014 15.884 6.09243 15.7728 6.31714C15.632 6.59216 15.4665 6.85431 15.2784 7.1005C14.7911 7.73583 14.2281 8.31166 13.6016 8.81571C12.2168 9.94321 10.2416 11 8 11C5.7584 11 3.784 9.94321 2.3984 8.81571C1.77186 8.31166 1.20893 7.73583 0.7216 7.1005C0.533454 6.85431 0.368001 6.59216 0.2272 6.31714C0.1152 6.09243 0 5.80014 0 5.5C0 5.19986 0.116 4.90757 0.2272 4.68286C0.3496 4.43536 0.5192 4.16979 0.7216 3.8995C1.20893 3.26417 1.77186 2.68834 2.3984 2.18429ZM8 7.85714C8.63652 7.85714 9.24697 7.6088 9.69706 7.16675C10.1471 6.7247 10.4 6.12515 10.4 5.5C10.4 4.87485 10.1471 4.2753 9.69706 3.83325C9.24697 3.3912 8.63652 3.14286 8 3.14286C7.36348 3.14286 6.75303 3.3912 6.30294 3.83325C5.85286 4.2753 5.6 4.87485 5.6 5.5C5.6 6.12515 5.85286 6.7247 6.30294 7.16675C6.75303 7.6088 7.36348 7.85714 8 7.85714Z" fill="black"/>
</svg>
