<svg width="55" height="12" viewBox="0 0 55 12" fill="none" xmlns="http://www.w3.org/2000/svg">
<path d="M10.0949 8.2478C10.9681 8.55075 11.4047 8.70222 11.6146 8.4757C11.8244 8.24919 11.6402 7.82538 11.2717 6.97777L10.1293 4.35041C9.95823 3.95692 9.87269 3.76017 9.9387 3.58191C10.0047 3.40365 10.1977 3.31005 10.5838 3.12286L12.3094 2.28623C12.9189 1.9907 13.2237 1.84293 13.4454 1.98184C13.6671 2.12075 13.6671 2.45945 13.6671 3.13685V9.42687C13.6671 9.8725 13.6671 10.0953 13.5287 10.2338C13.3902 10.3722 13.1674 10.3722 12.7218 10.3722H5.98197C5.24936 10.3722 4.88306 10.3722 4.74688 10.1345C4.6107 9.89682 4.79594 9.58081 5.16644 8.9488L5.94848 7.61473C6.13629 7.29434 6.2302 7.13415 6.38888 7.07563C6.54756 7.0171 6.723 7.07797 7.07386 7.1997L10.0949 8.2478Z" fill="#656565"/>
<path d="M20.0412 9.22333C20.0412 9.02032 19.967 8.84463 19.8186 8.69627C19.6781 8.54791 19.4985 8.41127 19.2799 8.28633C19.069 8.1614 18.8348 8.03647 18.5771 7.91153C18.3272 7.7866 18.093 7.64214 17.8744 7.47817C17.6635 7.30639 17.4839 7.10727 17.3356 6.88083C17.195 6.65439 17.1248 6.37719 17.1248 6.04924C17.1248 5.81499 17.1794 5.60416 17.2887 5.41676C17.398 5.22156 17.5464 5.05758 17.7338 4.92484C17.9212 4.7921 18.1437 4.69059 18.4014 4.62031C18.6669 4.54223 18.9519 4.50319 19.2564 4.50319C19.6781 4.50319 20.0685 4.53833 20.4277 4.6086C20.7947 4.67107 21.1148 4.76086 21.3881 4.87799C21.3569 5.12786 21.2944 5.39724 21.2007 5.68615C21.107 5.96725 21.0172 6.22493 20.9313 6.45918H20.5331L20.0412 5.2645C19.9475 5.22546 19.8499 5.20204 19.7484 5.19423C19.6469 5.17861 19.5336 5.1708 19.4087 5.1708C19.1744 5.1708 18.9949 5.24108 18.8699 5.38163C18.7528 5.51437 18.6942 5.66663 18.6942 5.83842C18.6942 6.03362 18.7645 6.20541 18.9051 6.35377C19.0534 6.49432 19.233 6.62706 19.4438 6.75199C19.6625 6.87693 19.8967 7.00186 20.1466 7.12679C20.4043 7.25173 20.6385 7.39618 20.8493 7.56016C21.068 7.71632 21.2476 7.90372 21.3881 8.12236C21.5365 8.34099 21.6107 8.60257 21.6107 8.9071C21.6107 9.44587 21.392 9.87143 20.9548 10.1838C20.5175 10.4883 19.9319 10.6406 19.1979 10.6406C18.8231 10.6406 18.4366 10.6015 18.0383 10.5234C17.6401 10.4453 17.2965 10.336 17.0076 10.1955C17.0232 9.91437 17.0896 9.62937 17.2067 9.34046C17.3239 9.05155 17.4488 8.79388 17.5815 8.56743H17.9798L18.5537 9.8441C18.6396 9.90657 18.7333 9.94561 18.8348 9.96122C18.9441 9.96903 19.0456 9.97294 19.1393 9.97294C19.3658 9.97294 19.5727 9.90657 19.7601 9.77382C19.9475 9.64108 20.0412 9.45759 20.0412 9.22333ZM27.0002 8.80168C27.0002 8.97347 27.0002 9.12183 27.0002 9.24676C27.008 9.37169 27.0197 9.50444 27.0353 9.64499L27.8435 9.76211V10.172C27.7498 10.2189 27.6209 10.2657 27.4569 10.3126C27.3008 10.3594 27.1329 10.4063 26.9533 10.4531C26.7815 10.4922 26.6097 10.5234 26.438 10.5469C26.2662 10.5781 26.1139 10.6015 25.9812 10.6171H25.5829C25.5049 10.4375 25.458 10.2579 25.4424 10.0783C25.4268 9.89876 25.4151 9.68012 25.4072 9.42245H25.3487C25.3096 9.57861 25.2433 9.73088 25.1496 9.87924C25.0559 10.0198 24.9348 10.1486 24.7865 10.2657C24.6459 10.3751 24.4781 10.4649 24.2828 10.5351C24.0876 10.6054 23.869 10.6406 23.6269 10.6406C23.3693 10.6406 23.1311 10.6015 22.9125 10.5234C22.6938 10.4453 22.5025 10.336 22.3386 10.1955C22.1746 10.0549 22.0458 9.88704 21.9521 9.69184C21.8584 9.48882 21.8115 9.26238 21.8115 9.01251C21.8115 8.66113 21.8779 8.37222 22.0106 8.14578C22.1434 7.91934 22.3503 7.73584 22.6314 7.59529C22.9203 7.44694 23.2873 7.33762 23.7324 7.26734C24.1852 7.19707 24.7318 7.14631 25.3721 7.11508C25.4346 6.44356 25.4072 5.95164 25.2901 5.6393C25.173 5.32697 24.9192 5.1708 24.5288 5.1708C24.2868 5.1708 24.0642 5.20984 23.8612 5.28793L23.3107 6.69343H22.7954C22.7329 6.59973 22.6704 6.49432 22.608 6.37719C22.5533 6.25226 22.4986 6.12342 22.444 5.99068C22.3971 5.85013 22.3542 5.70958 22.3151 5.56903C22.2839 5.42848 22.2605 5.29183 22.2449 5.15909C22.5416 4.95607 22.9242 4.796 23.3927 4.67888C23.8612 4.56175 24.357 4.50319 24.8802 4.50319C25.3253 4.50319 25.6884 4.55394 25.9695 4.65545C26.2506 4.74915 26.4692 4.88189 26.6254 5.05368C26.7893 5.21765 26.9025 5.41286 26.965 5.6393C27.0275 5.86574 27.0587 6.1078 27.0587 6.36548C27.0587 6.83398 27.047 7.25954 27.0236 7.64214C27.008 8.01694 27.0002 8.40346 27.0002 8.80168ZM24.3648 9.70355C24.5288 9.70355 24.6694 9.67231 24.7865 9.60985C24.9036 9.54738 25.0012 9.4732 25.0793 9.38731C25.1652 9.30142 25.2277 9.20772 25.2667 9.10621C25.3135 9.0047 25.3487 8.91491 25.3721 8.83682V7.66557C25.0051 7.67338 24.7045 7.6968 24.4702 7.73584C24.236 7.77489 24.0525 7.84126 23.9198 7.93496C23.787 8.02085 23.6933 8.13407 23.6387 8.27462C23.5918 8.40736 23.5684 8.57134 23.5684 8.76655C23.5684 9.06326 23.6387 9.29361 23.7792 9.45759C23.9198 9.62156 24.115 9.70355 24.3648 9.70355ZM32.8873 9.55129C32.8327 9.70745 32.7429 9.85191 32.618 9.98465C32.493 10.1096 32.3408 10.2228 32.1612 10.3243C31.9894 10.4258 31.7903 10.5039 31.5638 10.5586C31.3452 10.6132 31.1148 10.6406 30.8728 10.6406C30.3574 10.6406 29.9124 10.5703 29.5376 10.4297C29.1706 10.2814 28.866 10.0744 28.624 9.80896C28.3819 9.53567 28.2023 9.21162 28.0852 8.83682C27.9681 8.45421 27.9095 8.03256 27.9095 7.57187C27.9095 6.58021 28.1789 5.8228 28.7177 5.29964C29.2643 4.76867 30.0373 4.50319 31.0368 4.50319C31.4194 4.50319 31.7707 4.54613 32.0909 4.63203C32.411 4.71011 32.6765 4.80381 32.8873 4.91313C32.8717 5.04587 32.8483 5.19423 32.8171 5.3582C32.7936 5.51437 32.7624 5.67444 32.7234 5.83842C32.6921 5.99458 32.6531 6.15075 32.6062 6.30692C32.5594 6.45528 32.5125 6.58021 32.4657 6.68172H31.8918L31.3999 5.28793C31.3452 5.24889 31.2866 5.22156 31.2242 5.20594C31.1617 5.18251 31.068 5.1708 30.9431 5.1708C30.74 5.1708 30.5644 5.20984 30.416 5.28793C30.2676 5.3582 30.1388 5.48314 30.0295 5.66273C29.928 5.84232 29.8499 6.08047 29.7952 6.37719C29.7484 6.67391 29.725 7.0409 29.725 7.47817C29.725 7.79831 29.7601 8.09503 29.8304 8.36832C29.9006 8.6338 30.0061 8.86806 30.1466 9.07107C30.295 9.26628 30.4785 9.42245 30.6971 9.53957C30.9157 9.64889 31.1734 9.70355 31.4701 9.70355C31.7434 9.70355 31.9816 9.66451 32.1846 9.58642C32.3876 9.50834 32.5594 9.41464 32.6999 9.30532L32.8873 9.55129ZM36.1478 5.99068C36.0541 6.03753 35.9448 6.11561 35.8199 6.22493C35.6949 6.33425 35.5817 6.51384 35.4802 6.7637V9.76211C35.6364 9.77773 35.7925 9.80896 35.9487 9.85581C36.1049 9.89485 36.261 9.95732 36.4172 10.0432V10.5H33.0206V10.0432C33.1611 9.96513 33.2939 9.90657 33.4188 9.86752C33.5437 9.82848 33.6687 9.79334 33.7936 9.76211V5.47533L33.0206 5.38163V4.92484C33.1455 4.87018 33.2978 4.81943 33.4774 4.77258C33.6648 4.72573 33.8561 4.68668 34.0513 4.65545C34.2465 4.61641 34.4339 4.58518 34.6135 4.56175C34.8009 4.53833 34.957 4.5188 35.082 4.50319H35.4802V6.06095H35.5271C35.5895 5.88917 35.6793 5.70958 35.7964 5.52218C35.9214 5.33478 36.0658 5.16299 36.2298 5.00683C36.3938 4.85066 36.5734 4.72573 36.7686 4.63203C36.9638 4.53833 37.1668 4.49538 37.3776 4.50319C37.4635 4.6125 37.5377 4.76867 37.6002 4.97169C37.6626 5.1669 37.7134 5.3543 37.7524 5.53389V5.99068H36.1478ZM43.0191 9.51615C42.9567 9.64889 42.8552 9.78554 42.7146 9.92609C42.5819 10.0588 42.414 10.1799 42.211 10.2892C42.0158 10.3907 41.7854 10.4727 41.5199 10.5351C41.2623 10.6054 40.9812 10.6406 40.6766 10.6406C40.1925 10.6406 39.7631 10.5703 39.3883 10.4297C39.0135 10.2814 38.7011 10.0744 38.4512 9.80896C38.2014 9.53567 38.0101 9.21162 37.8773 8.83682C37.7524 8.46202 37.6899 8.04037 37.6899 7.57187C37.6899 6.5724 37.9515 5.81109 38.4747 5.28793C38.9978 4.76477 39.724 4.50319 40.6532 4.50319C41.0514 4.50319 41.4223 4.55785 41.7659 4.66716C42.1173 4.77648 42.4062 4.95607 42.6326 5.20594C42.8669 5.45581 43.0269 5.78376 43.1128 6.18979C43.2065 6.59583 43.2026 7.09166 43.1011 7.67728H39.5054C39.5132 8.29414 39.6694 8.78607 39.9739 9.15306C40.2862 9.52005 40.743 9.70355 41.3442 9.70355C41.6019 9.70355 41.8674 9.66451 42.1407 9.58642C42.4218 9.50834 42.6404 9.40683 42.7966 9.2819L43.0191 9.51615ZM40.6064 5.1708C40.4502 5.1708 40.3096 5.19813 40.1847 5.25279C40.0676 5.30745 39.9622 5.40896 39.8685 5.55731C39.7826 5.69787 39.7123 5.89307 39.6576 6.14294C39.603 6.385 39.5639 6.69343 39.5405 7.06823H41.4262C41.4809 6.45918 41.4458 5.99068 41.3208 5.66273C41.1959 5.33478 40.9577 5.1708 40.6064 5.1708ZM47.5063 9.34046C47.4673 9.51224 47.397 9.67622 47.2955 9.83239C47.194 9.98855 47.0729 10.1291 46.9324 10.254C46.7918 10.3712 46.6318 10.4649 46.4522 10.5351C46.2726 10.6054 46.0813 10.6406 45.8783 10.6406C45.1052 10.6406 44.5157 10.3985 44.1097 9.91437C43.7115 9.42245 43.5123 8.67285 43.5123 7.66557C43.5123 7.15022 43.5826 6.70124 43.7232 6.31863C43.8637 5.92821 44.0589 5.60026 44.3088 5.33478C44.5665 5.06929 44.8749 4.87018 45.2341 4.73744C45.5933 4.6047 45.9915 4.53833 46.4288 4.53833C46.5693 4.53833 46.6864 4.54223 46.7801 4.55004C46.8816 4.55785 46.9714 4.56956 47.0495 4.58518C47.1354 4.59298 47.2135 4.6125 47.2838 4.64374C47.3619 4.66716 47.4477 4.69449 47.5414 4.72573V2.66432L46.6513 2.57062V2.11383C46.7606 2.06698 46.909 2.02404 47.0964 1.98499C47.2916 1.94595 47.4946 1.91082 47.7054 1.87958C47.9162 1.84054 48.1232 1.8054 48.3262 1.77417C48.5292 1.74294 48.6971 1.71561 48.8298 1.69218H49.2281V9.66841L50.0011 9.76211V10.172C49.8918 10.2267 49.7512 10.2775 49.5794 10.3243C49.4076 10.3712 49.2281 10.4141 49.0407 10.4531C48.8533 10.4922 48.6698 10.5234 48.4902 10.5469C48.3184 10.5781 48.1739 10.6015 48.0568 10.6171H47.6586L47.5532 9.34046H47.5063ZM46.4405 9.70355C46.7138 9.70355 46.9441 9.61766 47.1315 9.44587C47.3189 9.27409 47.4556 8.98128 47.5414 8.56743V5.41676C47.4399 5.3543 47.3111 5.30354 47.1549 5.2645C47.0066 5.22546 46.8192 5.20594 46.5927 5.20594C46.1398 5.20594 45.8158 5.41286 45.6206 5.8267C45.4254 6.23274 45.3278 6.82617 45.3278 7.60701C45.3278 8.23948 45.4137 8.74703 45.5855 9.12963C45.7572 9.51224 46.0422 9.70355 46.4405 9.70355Z" fill="#656565"/>
</svg>
