<svg width="55" height="12" viewBox="0 0 55 12" fill="none" xmlns="http://www.w3.org/2000/svg">
<path fill-rule="evenodd" clip-rule="evenodd" d="M37.3814 8.6717C37.0393 8.6717 36.7136 8.547 36.4735 8.3058C36.2341 8.0652 36.0723 7.70122 36.0723 7.20916C36.0723 6.71107 36.2342 6.34733 36.4733 6.10843C36.713 5.86879 37.0387 5.7465 37.3814 5.7465C37.724 5.7465 38.0498 5.86879 38.2895 6.10843C38.5285 6.34733 38.6904 6.71107 38.6904 7.20916C38.6904 7.70714 38.5285 8.07087 38.2895 8.30978C38.0498 8.54941 37.724 8.6717 37.3814 8.6717ZM37.3814 4.1566C35.6444 4.1566 34.3289 5.43456 34.3289 7.20916C34.3289 8.97218 35.6441 10.2616 37.3814 10.2616C39.1186 10.2616 40.4339 8.97218 40.4339 7.20916C40.4339 5.43456 39.1184 4.1566 37.3814 4.1566Z" fill="#656565"/>
<path fill-rule="evenodd" clip-rule="evenodd" d="M22.9376 8.6717C22.5956 8.6717 22.2699 8.547 22.0298 8.3058C21.7904 8.0652 21.6286 7.70122 21.6286 7.20916C21.6286 6.71107 21.7905 6.34733 22.0295 6.10843C22.2693 5.86879 22.595 5.7465 22.9376 5.7465C23.2803 5.7465 23.606 5.86879 23.8458 6.10843C24.0848 6.34733 24.2467 6.71107 24.2467 7.20916C24.2467 7.70714 24.0848 8.07087 23.8458 8.30978C23.606 8.54941 23.2803 8.6717 22.9376 8.6717ZM22.9376 4.1566C21.2007 4.1566 19.8852 5.43456 19.8852 7.20916C19.8852 8.97218 21.2004 10.2616 22.9376 10.2616C24.6749 10.2616 25.9902 8.97218 25.9902 7.20916C25.9902 5.43456 24.6747 4.1566 22.9376 4.1566Z" fill="#656565"/>
<path fill-rule="evenodd" clip-rule="evenodd" d="M45.1812 10.2617H46.9143V6.80149C46.9143 6.51719 47.0033 6.26935 47.1604 6.09406C47.316 5.92022 47.5453 5.81 47.8439 5.81C48.1568 5.81 48.3695 5.9137 48.5059 6.07353C48.6446 6.23627 48.7168 6.47179 48.7168 6.75597V10.2617H50.4385V6.80149C50.4385 6.52322 50.5274 6.2749 50.6837 6.09768C50.8386 5.92203 51.0653 5.81 51.3568 5.81C51.6759 5.81 51.888 5.91394 52.0226 6.07317C52.1599 6.23542 52.2297 6.47083 52.2297 6.75597V10.2617H53.9175V6.4485C53.9175 5.67081 53.6614 5.10632 53.2591 4.73703C52.8585 4.36955 52.3248 4.20634 51.7874 4.20634C51.4064 4.20634 51.0565 4.27117 50.7423 4.42907C50.4749 4.56331 50.2383 4.76262 50.0318 5.03787C49.6974 4.49402 49.0869 4.20634 48.3652 4.20634C47.8389 4.20634 47.23 4.41506 46.8464 4.82081V4.36581H45.1812V10.2617Z" fill="#656565"/>
<path fill-rule="evenodd" clip-rule="evenodd" d="M44.529 4.35145V6.11761L44.3937 6.09033C44.2323 6.05785 44.0929 6.04711 43.9641 6.04711C43.5967 6.04711 43.2701 6.13705 43.0358 6.35555C42.8029 6.57261 42.6424 6.93393 42.6424 7.51701V10.2617H40.914V4.3634H42.5972V4.91558C43.0135 4.41507 43.6599 4.31789 44.0658 4.31789C44.1958 4.31789 44.3135 4.32972 44.4253 4.34107L44.529 4.35145Z" fill="#656565"/>
<path fill-rule="evenodd" clip-rule="evenodd" d="M13.4235 7.35463H15.1045L15.1235 7.37322C15.1363 7.38578 15.1453 7.40352 15.147 7.42344C15.1796 7.7908 15.3242 8.06785 15.5406 8.25243C15.756 8.43617 16.0346 8.52164 16.3251 8.52164C16.6794 8.52164 16.9693 8.39138 17.1694 8.16491C17.3685 7.93977 17.4722 7.62746 17.4722 7.2735V2.3698H19.2895V7.32421C19.2895 8.91037 18.0737 10.2367 16.3378 10.2367C15.4706 10.2367 14.7434 9.94917 14.2335 9.45011C13.7353 8.96252 13.4378 8.26668 13.4246 7.42115L13.4235 7.35463Z" fill="#656565"/>
<path fill-rule="evenodd" clip-rule="evenodd" d="M34.0828 3.18154L34.1788 3.20894V1.87123L34.1346 1.85119C34.067 1.82053 33.9583 1.79264 33.8327 1.77236C33.7056 1.75183 33.5555 1.73831 33.4026 1.73831C32.8068 1.73831 32.1371 1.93545 31.7902 2.29061C31.4436 2.64553 31.2524 3.15148 31.2524 3.7569V4.03274H30.3816V5.54466H31.2524V10.2609H33.0001V5.54466H34.1788V4.03274H33.0001V3.77814C33.0001 3.50604 33.0952 3.34946 33.2169 3.25832C33.3423 3.16415 33.5071 3.13132 33.6575 3.13132C33.8835 3.13132 34.0146 3.1621 34.0828 3.18154Z" fill="#656565"/>
<path fill-rule="evenodd" clip-rule="evenodd" d="M29.7564 8.81283L29.8466 8.78531V10.1282L29.8051 10.1484C29.7416 10.1793 29.6395 10.2072 29.5214 10.2274C29.4019 10.2481 29.2609 10.2617 29.1172 10.2617C28.5573 10.2617 27.9312 10.0639 27.6053 9.70725C27.2796 9.35088 27.1 8.84301 27.1 8.2353V5.56784H26.2816V4.05182H27.1V2.41291H28.7389V4.05182H29.8466V5.56784H28.7389V8.21393C28.7389 8.487 28.8283 8.64418 28.9426 8.73581C29.0605 8.83021 29.2154 8.86329 29.3567 8.86329C29.5692 8.86329 29.6923 8.83239 29.7564 8.81283Z" fill="#656565"/>
<path d="M3.6899 10.4782C3.8874 10.6676 3.74785 10.9921 3.46729 10.9921H1.71207C1.36577 10.9921 1.08398 10.7219 1.08398 10.3898V8.70659C1.08398 8.43762 1.42239 8.30374 1.6199 8.49315L3.6899 10.4782Z" fill="#656565"/>
<path d="M6.43353 10.6244C5.91407 10.1138 5.91407 9.28593 6.43353 8.7754L8.3087 6.93259C8.82816 6.42206 9.67056 6.42206 10.1901 6.93259C10.7097 7.44324 10.7097 8.27103 10.1901 8.78168L8.3151 10.6244C7.79551 11.135 6.95312 11.135 6.43353 10.6244Z" fill="#656565"/>
<path d="M1.47967 5.9941C0.960107 5.48357 0.960107 4.65566 1.47967 4.14513L4.29774 1.37566C4.81732 0.865013 5.65972 0.865013 6.1793 1.37566C6.69877 1.8862 6.69877 2.7141 6.1793 3.22463L3.36118 5.9941C2.8416 6.50475 1.99923 6.50475 1.47967 5.9941Z" fill="#656565"/>
<path d="M4.05955 8.20596C3.53996 7.69531 3.53996 6.86752 4.05955 6.35687L8.32331 2.16675C8.84289 1.6561 9.68528 1.6561 10.2049 2.16675C10.7243 2.67728 10.7243 3.50519 10.2049 4.01572L5.94111 8.20596C5.42153 8.71649 4.57913 8.71649 4.05955 8.20596Z" fill="#656565"/>
</svg>
