<svg width="29" height="29" viewBox="0 0 29 29" fill="none" xmlns="http://www.w3.org/2000/svg">
<rect width="29.0039" height="29.0039" rx="8" fill="#04DEFF"/>
<path d="M15.4541 16.9982C15.4541 16.7423 15.6616 16.5348 15.9176 16.5348H21.7318C21.9877 16.5348 22.1952 16.7423 22.1952 16.9982V20.1373C22.1952 20.3933 21.9877 20.6007 21.7318 20.6007H15.9176C15.6616 20.6007 15.4541 20.3933 15.4541 20.1373V16.9982Z" fill="white"/>
<path d="M11.3867 12.9322C11.3867 12.6763 11.5942 12.4688 11.8502 12.4688H14.9943C15.2503 12.4688 15.4578 12.6763 15.4578 12.9322V16.075C15.4578 16.3309 15.2503 16.5384 14.9943 16.5384H11.8502C11.5942 16.5384 11.3867 16.3309 11.3867 16.075V12.9322Z" fill="white"/>
<path d="M7.31935 8.86627C7.31935 8.61032 7.52683 8.40283 7.78278 8.40283H10.9269C11.1829 8.40283 11.3904 8.61032 11.3904 8.86626V12.009C11.3904 12.2649 11.1829 12.4724 10.9269 12.4724H7.78278C7.52683 12.4724 7.31935 12.2649 7.31935 12.009V8.86627Z" fill="white"/>
<path d="M3.25195 12.9322C3.25195 12.6763 3.45944 12.4688 3.71539 12.4688H6.85955C7.1155 12.4688 7.32298 12.6763 7.32298 12.9322V16.075C7.32298 16.3309 7.1155 16.5384 6.85955 16.5384H3.71539C3.45944 16.5384 3.25195 16.3309 3.25195 16.075V12.9322Z" fill="white"/>
<path d="M22.1952 12.9322C22.1952 12.6763 22.4027 12.4688 22.6586 12.4688H25.8028C26.0587 12.4688 26.2662 12.6763 26.2662 12.9322V16.075C26.2662 16.3309 26.0587 16.5384 25.8028 16.5384H22.6586C22.4027 16.5384 22.1952 16.3309 22.1952 16.075V12.9322Z" fill="white"/>
</svg>
