<svg width="53" height="28" viewBox="0 0 53 28" fill="none" xmlns="http://www.w3.org/2000/svg">
<path d="M28.0098 19.7305C28.0098 19.143 28.4861 18.6667 29.0736 18.6667H42.42C43.0075 18.6667 43.4838 19.143 43.4838 19.7305V26.9362C43.4838 27.5237 43.0075 28 42.42 28H29.0736C28.4861 28 28.0098 27.5237 28.0098 26.9362V19.7305Z" fill="black"/>
<path d="M18.6732 10.3971C18.6732 9.80962 19.1495 9.33334 19.737 9.33334H26.9544C27.5419 9.33334 28.0182 9.80962 28.0182 10.3971V17.6112C28.0182 18.1987 27.5419 18.675 26.9544 18.675H19.737C19.1495 18.675 18.6732 18.1987 18.6732 17.6112V10.3971Z" fill="black"/>
<path d="M9.33661 1.0638C9.33661 0.476282 9.81289 0 10.4004 0H17.6178C18.2053 0 18.6816 0.476279 18.6816 1.0638V8.27788C18.6816 8.8654 18.2053 9.34168 17.6178 9.34168H10.4004C9.81289 9.34168 9.33661 8.8654 9.33661 8.27788V1.0638Z" fill="black"/>
<path d="M0 10.3971C0 9.80962 0.476279 9.33334 1.0638 9.33334H8.28115C8.86867 9.33334 9.34495 9.80962 9.34495 10.3971V17.6112C9.34495 18.1987 8.86867 18.675 8.28115 18.675H1.0638C0.476279 18.675 0 18.1987 0 17.6112V10.3971Z" fill="black"/>
<path d="M43.4837 10.3971C43.4837 9.80962 43.96 9.33334 44.5475 9.33334H51.7649C52.3524 9.33334 52.8287 9.80962 52.8287 10.3971V17.6112C52.8287 18.1987 52.3524 18.675 51.7649 18.675H44.5475C43.96 18.675 43.4837 18.1987 43.4837 17.6112V10.3971Z" fill="black"/>
</svg>
