<svg width="15" height="12" viewBox="0 0 15 12" fill="none" xmlns="http://www.w3.org/2000/svg">
<path fill-rule="evenodd" clip-rule="evenodd" d="M2.25 12C1.65326 12 1.08097 11.7629 0.65901 11.341C0.237053 10.919 0 10.3467 0 9.75V2.25C0 1.65326 0.237053 1.08097 0.65901 0.65901C1.08097 0.237053 1.65326 0 2.25 0H12.75C13.3467 0 13.919 0.237053 14.341 0.65901C14.7629 1.08097 15 1.65326 15 2.25V9.75C15 10.3467 14.7629 10.919 14.341 11.341C13.919 11.7629 13.3467 12 12.75 12H2.25ZM4.21875 3.165C4.14235 3.09976 4.05362 3.05054 3.95784 3.02025C3.86205 2.98996 3.76115 2.97923 3.66113 2.98869C3.56112 2.99814 3.46402 3.02759 3.3756 3.0753C3.28719 3.123 3.20926 3.18798 3.14644 3.26638C3.08362 3.34478 3.03719 3.435 3.00991 3.53168C2.98263 3.62837 2.97505 3.72955 2.98762 3.82923C3.0002 3.9289 3.03267 4.02503 3.08311 4.11191C3.13355 4.1988 3.20093 4.27466 3.28125 4.335L6.09375 6.58575C6.49282 6.90526 6.98879 7.07934 7.5 7.07934C8.01121 7.07934 8.50718 6.90526 8.90625 6.58575L11.7188 4.33575C11.7957 4.27419 11.8597 4.19809 11.9072 4.11178C11.9547 4.02547 11.9848 3.93065 11.9956 3.83273C12.0065 3.73481 11.998 3.63571 11.9705 3.54109C11.9431 3.44646 11.8973 3.35817 11.8358 3.28125C11.7742 3.20433 11.6981 3.14028 11.6118 3.09277C11.5255 3.04526 11.4307 3.01522 11.3327 3.00436C11.2348 2.99349 11.1357 3.00202 11.0411 3.02945C10.9465 3.05689 10.8582 3.10269 10.7812 3.16425L7.96875 5.41425C7.83573 5.52075 7.6704 5.57878 7.5 5.57878C7.3296 5.57878 7.16427 5.52075 7.03125 5.41425L4.21875 3.165Z" fill="#C0C0C0"/>
</svg>
