<svg width="12" height="9" viewBox="0 0 12 9" fill="none" xmlns="http://www.w3.org/2000/svg">
<path d="M10.7828 6.88647C11.0201 6.88656 11.2483 6.95955 11.4201 7.09031C11.5919 7.22107 11.6941 7.39958 11.7055 7.58885C11.7169 7.77811 11.6366 7.96363 11.4814 8.10695C11.3261 8.25027 11.1077 8.34041 10.8715 8.3587L10.7828 8.36214H0.924237C0.686882 8.36205 0.458671 8.28906 0.286891 8.1583C0.115112 8.02754 0.0129319 7.84903 0.00152545 7.65976C-0.00988101 7.4705 0.0703602 7.28498 0.225622 7.14166C0.380884 6.99834 0.599263 6.9082 0.83551 6.88991L0.924237 6.88647H10.7828ZM10.7828 3.44323C11.0279 3.44323 11.263 3.52097 11.4363 3.65934C11.6096 3.79771 11.707 3.98538 11.707 4.18107C11.707 4.37676 11.6096 4.56443 11.4363 4.7028C11.263 4.84117 11.0279 4.91891 10.7828 4.91891H0.924237C0.679114 4.91891 0.444031 4.84117 0.270703 4.7028C0.0973747 4.56443 0 4.37676 0 4.18107C0 3.98538 0.0973747 3.79771 0.270703 3.65934C0.444031 3.52097 0.679114 3.44323 0.924237 3.44323H10.7828ZM10.7828 0C11.0279 0 11.263 0.0777361 11.4363 0.216107C11.6096 0.354478 11.707 0.54215 11.707 0.737836C11.707 0.933522 11.6096 1.12119 11.4363 1.25956C11.263 1.39794 11.0279 1.47567 10.7828 1.47567H0.924237C0.679114 1.47567 0.444031 1.39794 0.270703 1.25956C0.0973747 1.12119 0 0.933522 0 0.737836C0 0.54215 0.0973747 0.354478 0.270703 0.216107C0.444031 0.0777361 0.679114 0 0.924237 0H10.7828Z" fill="#BEBEBE"/>
</svg>
