<svg width="75" height="75" viewBox="0 0 75 75" fill="none" xmlns="http://www.w3.org/2000/svg">
<g clip-path="url(#clip0_267_419)">
<path d="M64.3397 49.9729H67.2015V61.4577H64.3397V49.9729ZM61.4591 61.4577H64.3397V64.3195H61.4591V61.4577ZM61.4591 47.1111H64.3397V49.9729H61.4591V47.1111ZM35.6465 64.3195H61.4591V67.2001H35.6465V64.3195ZM55.7355 55.7153H58.5973V58.5959H55.7355V55.7153ZM55.7355 49.9729H58.5973V52.8535H55.7355V49.9729ZM44.2507 58.5959H55.7355V61.4577H44.2507V58.5959ZM41.3889 55.7153H44.2507V58.5959H41.3889V55.7153Z" fill="#494949"/>
<path d="M41.3868 35.6449V38.5067H44.2486V55.7151H47.1292V47.1109H61.457V44.2491H47.1292V32.7643H44.2486V35.6449H41.3868ZM41.3868 29.9025H44.2486V32.7643H41.3868V29.9025ZM12.6936 32.7643H41.3868V35.6449H12.6936V32.7643ZM41.3868 61.4576V58.5958H12.6936V61.4576H32.7826V64.3193H35.6444V61.4576H41.3868ZM21.2978 6.95169H32.7826V9.81348H21.2978V6.95169ZM41.3868 41.3685H38.5062V38.5067H15.5554V41.3685H12.6936V52.8533H15.5554V55.7151H38.5062V52.8533H41.3868V41.3685ZM18.436 41.3685H21.2978V44.2491H18.436V41.3685ZM35.6444 49.9727H32.7826V52.8533H21.2978V49.9727H18.436V47.1109H21.2978V49.9727H32.7826V47.1109H35.6444V49.9727ZM35.6444 44.2491H32.7826V41.3685H35.6444V44.2491ZM41.3868 29.9025V27.0219H35.6444V9.81348H32.7826V27.0219H21.2978V9.81348H18.436V27.0219H12.6936V29.9025H41.3868ZM9.83179 55.7151H12.6936V58.5958H9.83179V55.7151ZM9.83179 29.9025H12.6936V32.7643H9.83179V29.9025ZM9.83179 38.5067H12.6936V35.6449H9.83179V32.7643H6.95117V55.7151H9.83179V38.5067Z" fill="#494949"/>
</g>
<defs>
<clipPath id="clip0_267_419">
<rect width="60.2483" height="60.2483" fill="white" transform="translate(6.95117 6.95169)"/>
</clipPath>
</defs>
</svg>
