<svg width="75" height="75" viewBox="0 0 75 75" fill="none" xmlns="http://www.w3.org/2000/svg">
<g clip-path="url(#clip0_267_433)">
<path d="M61.4651 13.2101H64.0133V25.6254H61.4651V13.2101ZM28.4879 25.6254V13.2101H31.0195V15.6866H33.551V13.2101H38.6309V18.1795H41.1625V13.2101H46.2423V15.6866H48.7905V13.2101H53.8537V18.1795H56.4019V13.2101H61.4651V10.7172H20.8598V13.2101H25.9396V25.6254H13.2484V20.656H10.7168V60.3786H13.2484V55.4092H18.3282V52.9327H13.2484V47.9633H15.7966V45.4867H13.2484V40.5173H18.3282V38.0408H13.2484V33.0714H15.7966V30.5948H13.2484V28.102H25.9396V60.3786H28.4879V28.102H61.4651V25.6254H28.4879ZM13.2484 60.3786H25.9396V62.8552H13.2484V60.3786Z" fill="#494949"/>
<path d="M18.3298 13.2103H20.8614V15.6868H18.3298V13.2103ZM15.7982 15.6868H18.3298V18.1797H15.7982V15.6868ZM13.25 18.1797H15.7982V20.6562H13.25V18.1797Z" fill="#494949"/>
</g>
<defs>
<clipPath id="clip0_267_433">
<rect width="52.7172" height="52.7172" fill="white" transform="translate(10.7168 10.7172)"/>
</clipPath>
</defs>
</svg>
